<?xml version="1.0" standalone="no"?>
<!DOCTYPE svg PUBLIC "-//W3C//DTD SVG 20010904//EN"
 "http://www.w3.org/TR/2001/REC-SVG-20010904/DTD/svg10.dtd">
<svg version="1.0" xmlns="http://www.w3.org/2000/svg"
 width="300.000000pt" height="300.000000pt" viewBox="0 0 300.000000 300.000000"
 preserveAspectRatio="xMidYMid meet">
<metadata>
Created by potrace 1.11, written by Peter Selinger 2001-2013
</metadata>
<g transform="translate(0.000000,300.000000) scale(0.100000,-0.100000)"
fill="#000000" stroke="none">
<path d="M0 1500 l0 -950 1500 0 1500 0 0 950 0 950 -1500 0 -1500 0 0 -950z
m2928 -2 l2 -878 -1430 0 -1430 0 0 873 c0 481 3 877 7 880 3 4 646 6 1427 5
l1421 -3 3 -877z"/>
<path d="M380 1775 l0 -315 50 0 50 0 0 315 0 315 -50 0 -50 0 0 -315z"/>
<path d="M902 1832 l3 -259 27 -40 c39 -59 102 -86 203 -87 64 0 89 4 122 22
23 12 44 26 48 32 3 6 -15 -1 -41 -15 -87 -46 -199 -29 -239 38 -18 29 -20 55
-23 300 l-3 267 -50 0 -50 0 3 -258z"/>
<path d="M1530 2086 c0 -2 43 -79 96 -171 52 -92 93 -173 90 -180 -3 -8 0 -12
7 -10 7 3 43 -52 86 -129 l75 -134 53 -4 c34 -2 53 1 51 7 -2 6 -82 149 -178
318 l-175 306 -52 1 c-29 0 -53 -2 -53 -4z"/>
<path d="M1917 2069 c-4 -16 -3 -18 9 -8 16 13 19 29 5 29 -5 0 -11 -9 -14
-21z"/>
<path d="M2170 1775 l0 -315 50 0 50 0 0 315 0 315 -50 0 -50 0 0 -315z"/>
<path d="M2435 2074 c50 -18 83 -49 94 -88 8 -26 9 -20 10 37 l1 67 -72 -1
-73 0 40 -15z"/>
<path d="M1888 2018 c-8 -13 -24 -41 -37 -63 -26 -47 3 -10 37 47 24 40 24 54
0 16z"/>
<path d="M1810 1890 c-6 -11 -8 -20 -6 -20 3 0 10 9 16 20 6 11 8 20 6 20 -3
0 -10 -9 -16 -20z"/>
<path d="M2413 1839 c-8 -19 -23 -34 -42 -42 -34 -13 -41 -27 -13 -27 22 0 47
-25 61 -60 7 -19 10 -4 10 68 1 50 0 92 -2 92 -1 0 -8 -14 -14 -31z"/>
<path d="M1694 1698 c-4 -7 -14 -24 -22 -38 -14 -24 -13 -24 3 -5 20 24 37 55
31 55 -3 0 -8 -6 -12 -12z"/>
<path d="M1640 1610 c-6 -11 -8 -20 -6 -20 3 0 10 9 16 20 6 11 8 20 6 20 -3
0 -10 -9 -16 -20z"/>
<path d="M772 1592 c-5 -59 -67 -122 -119 -122 -13 0 -23 -5 -23 -10 0 -9 137
-4 148 5 2 2 1 36 -1 76 -1 41 -4 64 -5 51z"/>
<path d="M2578 1585 c-14 -63 -79 -115 -143 -115 -14 0 -25 -5 -25 -10 0 -9
167 -4 178 5 2 2 2 36 0 76 -2 54 -5 66 -10 44z"/>
<path d="M1614 1568 c-4 -7 -14 -24 -22 -38 -14 -24 -13 -24 3 -5 20 24 37 55
31 55 -3 0 -8 -6 -12 -12z"/>
<path d="M1560 1481 c-12 -24 -13 -34 -1 -27 9 6 22 46 15 46 -2 0 -8 -9 -14
-19z"/>
<path d="M913 1223 c307 -2 807 -2 1110 0 304 1 53 2 -558 2 -611 0 -859 -1
-552 -2z"/>
<path d="M2381 1104 c-22 -18 -31 -35 -31 -55 0 -54 66 -97 108 -70 20 12 11
55 -13 59 -20 4 -20 3 -1 -11 24 -18 15 -47 -14 -47 -26 0 -70 43 -70 67 0 36
29 63 68 63 28 0 33 3 22 10 -23 15 -36 12 -69 -16z"/>
<path d="M524 1050 l1 -75 45 -1 45 -2 -40 7 -40 6 -6 70 -6 70 1 -75z"/>
<path d="M682 1060 c-2 -71 7 -90 44 -90 40 0 54 25 52 93 l-1 62 -6 -60 c-7
-69 -15 -85 -40 -85 -29 0 -40 21 -44 85 l-3 60 -2 -65z"/>
<path d="M850 1114 c0 -3 9 -19 21 -35 20 -29 20 -29 1 -56 -27 -39 -34 -53
-28 -53 3 0 16 16 29 36 l25 35 22 -36 c12 -20 25 -34 27 -31 3 3 -5 19 -18
37 l-23 32 21 39 c25 45 15 52 -11 7 l-19 -31 -19 31 c-19 30 -28 38 -28 25z"/>
<path d="M1010 1067 c0 -61 20 -97 54 -97 39 0 56 30 54 96 l-1 59 -6 -62 c-7
-71 -19 -88 -55 -79 -25 6 -26 10 -26 71 0 37 -4 65 -10 65 -5 0 -10 -24 -10
-53z"/>
<path d="M1182 1043 c1 -43 3 -61 5 -40 5 45 26 49 43 7 7 -17 15 -29 17 -27
2 3 -2 16 -8 31 -10 22 -9 29 5 45 25 28 6 61 -34 61 l-30 0 2 -77z m57 53 c9
-11 8 -18 -4 -30 -26 -26 -45 -20 -45 14 0 23 5 30 19 30 10 0 24 -6 30 -14z"/>
<path d="M1325 1078 c14 -24 25 -55 25 -70 0 -15 5 -30 10 -33 6 -4 10 7 10
26 0 18 11 52 25 76 14 23 22 43 18 43 -5 0 -17 -16 -27 -35 -11 -19 -22 -35
-26 -35 -4 0 -15 16 -26 35 -10 19 -22 35 -26 35 -4 0 4 -19 17 -42z"/>
<path d="M1562 1048 l-2 -78 48 1 47 2 -40 6 -40 6 -6 70 -5 70 -2 -77z"/>
<path d="M1723 1050 c0 -41 2 -58 4 -37 2 20 2 54 0 75 -2 20 -4 3 -4 -38z"/>
<path d="M1802 1108 c-21 -21 -13 -37 29 -63 41 -27 45 -41 16 -59 -12 -8 -22
-7 -37 2 -11 7 -20 8 -20 2 0 -15 51 -24 69 -13 32 20 25 50 -18 77 -45 29
-48 62 -5 53 13 -2 24 0 24 4 0 13 -44 11 -58 -3z"/>
<path d="M1942 1113 c26 -4 27 -7 31 -76 l3 -72 2 72 c2 70 3 72 30 76 15 2 0
4 -33 4 -33 0 -48 -2 -33 -4z"/>
<path d="M2083 1045 c0 -44 2 -61 4 -37 2 23 2 59 0 80 -2 20 -4 1 -4 -43z"/>
<path d="M2162 1045 l2 -80 3 68 4 69 41 -47 c22 -25 49 -56 59 -68 18 -22 18
-21 17 58 -2 79 -2 79 -5 15 l-4 -65 -59 65 -59 65 1 -80z"/>
<path d="M1179 891 c-33 -33 -36 -56 -13 -89 20 -29 51 -44 74 -37 28 9 25 23
-4 18 -28 -6 -66 27 -66 57 0 30 38 63 66 57 27 -5 33 7 8 17 -26 10 -34 7
-65 -23z"/>
<path d="M532 898 c-20 -20 -14 -38 23 -59 19 -12 35 -27 35 -35 0 -21 -29
-29 -51 -15 -11 6 -19 7 -19 1 0 -15 39 -32 60 -25 43 14 32 67 -18 86 -33 13
-25 45 11 42 15 -1 25 2 22 8 -9 13 -49 11 -63 -3z"/>
<path d="M730 841 c0 -38 5 -73 10 -76 6 -4 10 8 10 29 0 30 3 35 26 38 63 7
55 71 -10 76 l-36 3 0 -70z m59 50 c19 -12 6 -41 -19 -41 -15 0 -20 7 -20 25
0 26 14 31 39 16z"/>
<path d="M932 838 l3 -73 39 -3 c21 -2 43 1 49 7 8 8 -1 11 -31 11 -38 0 -42
2 -42 25 0 22 4 25 36 25 21 0 33 4 29 10 -3 6 -19 10 -36 10 -24 0 -29 4 -29
24 0 21 5 25 38 29 34 3 33 4 -11 5 l-48 2 3 -72z"/>
<path d="M1397 839 c2 -96 13 -101 13 -6 0 43 -3 77 -7 77 -5 0 -7 -32 -6 -71z"/>
<path d="M1574 843 c-16 -37 -30 -71 -32 -75 -2 -4 1 -8 6 -8 5 0 15 14 22 30
17 41 54 41 75 -1 28 -53 27 -24 0 42 -15 35 -30 68 -34 72 -4 4 -21 -23 -37
-60z m46 6 c0 -5 -7 -9 -15 -9 -9 0 -12 6 -9 15 6 15 24 11 24 -6z"/>
<path d="M1792 838 l3 -73 48 -3 c28 -2 47 1 47 7 0 6 -18 11 -40 11 l-40 0 0
65 c0 38 -4 65 -10 65 -7 0 -10 -27 -8 -72z"/>
<path d="M2020 834 c0 -47 4 -73 10 -69 6 3 10 37 10 76 0 39 -4 69 -10 69 -6
0 -10 -32 -10 -76z"/>
<path d="M2177 903 c-19 -18 -5 -52 28 -72 24 -14 33 -25 28 -36 -4 -13 -14
-15 -42 -11 -34 6 -35 5 -17 -9 37 -28 76 -12 76 31 0 15 -12 29 -36 43 -30
18 -34 24 -24 36 8 9 21 13 31 10 11 -4 19 -2 19 4 0 12 -52 15 -63 4z"/>
<path d="M2385 901 c29 -6 30 -8 32 -66 2 -87 6 -89 12 -10 6 63 8 70 31 76
16 4 1 7 -40 7 -44 0 -55 -2 -35 -7z"/>
</g>
</svg>
